<?xml version="1.0" encoding="UTF-8"?><svg id="Capa_1" xmlns="http://www.w3.org/2000/svg" viewBox="0 0 402.78 603.97"><defs><style>.cls-1{fill:#999;}.cls-1,.cls-2,.cls-3,.cls-4,.cls-5{stroke-width:0px;}.cls-2,.cls-6,.cls-7{fill:#8dc640;}.cls-6{stroke-width:6px;}.cls-6,.cls-7{stroke:#999;stroke-miterlimit:10;}.cls-8{stroke-dasharray:0 0 0 6.03;}.cls-8,.cls-9{fill:none;stroke:#181363;stroke-linecap:round;stroke-linejoin:round;}.cls-8,.cls-9,.cls-7{stroke-width:3px;}.cls-4{fill:#fff;}.cls-5{fill:#181363;}</style></defs><path class="cls-4" d="m236.72,415.37c-.41,0-.81-.09-1.19-.27-.95-.45-1.59-1.55-1.59-2.74v-23.98s-8.2,0-8.2,0c-5.45,0-9.88-4.42-9.88-9.86v-62.87c0-5.1,4.15-9.24,9.24-9.24h141.73c5.1,0,9.24,4.15,9.24,9.24v62.87c0,5.43-4.42,9.86-9.85,9.86l-77.56.02-18.67-.02-31.42,26.27c-.55.48-1.19.72-1.85.72Z"/><path class="cls-1" d="m366.83,310.41c2.89,0,5.24,2.35,5.24,5.24v62.87c0,3.23-2.63,5.86-5.86,5.86l-77.55.02-17.22-.02h-2.91s-2.23,1.86-2.23,1.86l-28.37,23.72v-25.58h-12.2c-3.25,0-5.88-2.63-5.88-5.86v-62.87c0-2.89,2.35-5.24,5.24-5.24h141.73m0-8h-141.73c-7.31,0-13.24,5.93-13.24,13.24v62.87c0,7.64,6.23,13.86,13.88,13.86h4.2v19.98c0,2.68,1.46,5.22,3.88,6.36.94.44,1.93.65,2.9.65,1.62,0,3.19-.58,4.42-1.65l30.3-25.34,17.22.02,77.56-.02c7.64,0,13.85-6.22,13.85-13.86v-62.87c0-7.31-5.93-13.24-13.24-13.24h0Z"/><path class="cls-2" d="m288.27,148.09c-3.79-2.31-7.6-4.04-11.42-5.2-.49-.34-1.05-.57-1.66-.65l-1.39-.17c-.32-.07-.64-.12-.96-.18,5.66-1.97,10.45-6.02,13.26-11.6,1.65-3.31,2.49-6.86,2.49-10.56,0-12.95-10.55-23.49-23.51-23.49s-23.49,10.54-23.49,23.49c0,3.7.84,7.25,2.49,10.56,2.8,5.59,7.59,9.65,13.28,11.61-.22.04-.44.08-.66.12l-1.72.21c-.67.08-1.29.34-1.8.74-3.73,1.16-7.44,2.86-11.15,5.11-15.88,9.66-22.97,25.04-22.97,49.86,0,2.05,1.66,3.71,3.71,3.71s3.71-1.66,3.71-3.71c0-27.95,9.81-37.68,19.4-43.52,2.8-1.7,5.56-3.02,8.3-4l5.76,7.62-5.38,22.25c-.27,1.13,0,2.32.73,3.21l6.97,8.56c.7.87,1.76,1.37,2.88,1.37h.02c1.12,0,2.18-.52,2.88-1.4l6.98-8.8c.71-.9.97-2.08.69-3.2l-5.47-21.99,5.77-7.64c2.77.98,5.56,2.31,8.39,4.03,9.59,5.83,19.4,15.57,19.4,43.52,0,2.05,1.66,3.71,3.71,3.71s3.71-1.66,3.71-3.71c0-24.82-7.08-40.2-22.97-49.86Zm-23.17,4.46l-2.81-3.71,2.81-.34,2.81.34-2.81,3.71Zm-14.36-25.57c-1.13-2.27-1.71-4.7-1.71-7.24,0-8.86,7.21-16.07,16.07-16.07s16.09,7.21,16.09,16.07c0,2.54-.58,4.97-1.7,7.23-2.75,5.47-8.27,8.86-14.39,8.86s-11.63-3.39-14.36-8.85Zm14.38,56.82l-2.89-3.55,2.92-12.06,2.95,11.86-2.98,3.76Z"/><path class="cls-2" d="m358.76,58.62c-2.01-1.22-4.03-2.14-6.05-2.76-.26-.18-.56-.3-.88-.34l-.73-.09c-.17-.04-.34-.06-.51-.1,3-1.04,5.54-3.19,7.03-6.15.88-1.75,1.32-3.64,1.32-5.6,0-6.86-5.59-12.45-12.46-12.45s-12.45,5.58-12.45,12.45c0,1.96.44,3.84,1.32,5.6,1.48,2.96,4.02,5.11,7.04,6.15-.12.02-.23.04-.35.07l-.91.11c-.35.04-.68.18-.96.39-1.97.62-3.95,1.52-5.91,2.71-8.42,5.12-12.17,13.27-12.17,26.42,0,1.09.88,1.97,1.97,1.97s1.97-.88,1.97-1.97c0-14.81,5.2-19.97,10.28-23.06,1.49-.9,2.95-1.6,4.4-2.12l3.05,4.04-2.85,11.79c-.14.6,0,1.23.39,1.7l3.69,4.53c.37.46.93.72,1.52.72h.01c.6,0,1.16-.28,1.53-.74l3.7-4.66c.38-.48.51-1.1.37-1.7l-2.9-11.65,3.06-4.05c1.47.52,2.95,1.22,4.45,2.14,5.08,3.09,10.28,8.25,10.28,23.06,0,1.09.88,1.97,1.97,1.97s1.97-.88,1.97-1.97c0-13.15-3.75-21.3-12.17-26.42Zm-12.28,2.36l-1.49-1.97,1.49-.18,1.49.18-1.49,1.97Zm-7.61-13.55c-.6-1.2-.91-2.49-.91-3.84,0-4.7,3.82-8.52,8.52-8.52s8.53,3.82,8.53,8.52c0,1.34-.31,2.64-.9,3.83-1.46,2.9-4.38,4.7-7.63,4.7s-6.16-1.8-7.61-4.69Zm7.62,30.11l-1.53-1.88,1.55-6.39,1.56,6.29-1.58,1.99Z"/><rect class="cls-6" x="47" y="98.9" width="61.69" height="61.69" rx="10.35" ry="10.35"/><path class="cls-1" d="m325.06,119.56c-.95,0-1.85-.36-2.54-1.01-.73-.69-1.15-1.67-1.15-2.68v-11.01h-2.29c-4.17,0-7.56-3.38-7.56-7.54V26.49c0-4.15,3.38-7.53,7.54-7.53h54.89c4.16,0,7.54,3.38,7.54,7.53v70.83c0,4.16-3.38,7.54-7.54,7.54h-29.99s-16.54,13.83-16.54,13.83c-.63.54-1.48.86-2.36.86Zm-6-94.31c-.69,0-1.25.55-1.25,1.24v70.83c0,.69.57,1.25,1.27,1.25h5.43c1.74,0,3.15,1.41,3.15,3.15v8.58l13.15-11c.57-.47,1.28-.73,2.02-.73h10.52s20.61,0,20.61,0c.68,0,1.25-.57,1.25-1.25V26.49c0-.68-.56-1.24-1.25-1.24h-54.89Z"/><path class="cls-2" d="m224.5,477.75c-3.79-2.31-7.6-4.04-11.42-5.2-.49-.34-1.05-.57-1.66-.65l-1.39-.17c-.32-.07-.64-.12-.96-.18,5.66-1.97,10.45-6.02,13.26-11.6,1.65-3.31,2.49-6.86,2.49-10.56,0-12.95-10.55-23.49-23.51-23.49s-23.49,10.54-23.49,23.49c0,3.7.84,7.25,2.49,10.56,2.8,5.59,7.59,9.65,13.28,11.61-.22.04-.44.08-.66.12l-1.72.21c-.67.08-1.29.34-1.8.74-3.73,1.16-7.44,2.86-11.15,5.11-15.88,9.66-22.97,25.04-22.97,49.86,0,2.05,1.66,3.71,3.71,3.71s3.71-1.66,3.71-3.71c0-27.95,9.81-37.68,19.4-43.52,2.8-1.7,5.56-3.02,8.3-4l5.76,7.62-5.38,22.25c-.27,1.13,0,2.32.73,3.21l6.97,8.56c.7.87,1.76,1.37,2.88,1.37h.02c1.12,0,2.18-.52,2.88-1.4l6.98-8.8c.71-.9.97-2.08.69-3.2l-5.47-21.99,5.77-7.64c2.77.98,5.56,2.31,8.39,4.03,9.59,5.83,19.4,15.57,19.4,43.52,0,2.05,1.66,3.71,3.71,3.71s3.71-1.66,3.71-3.71c0-24.82-7.08-40.2-22.97-49.86Zm-23.17,4.46l-2.81-3.71,2.81-.34,2.81.34-2.81,3.71Zm-14.36-25.57c-1.13-2.27-1.71-4.7-1.71-7.24,0-8.86,7.21-16.07,16.07-16.07s16.09,7.21,16.09,16.07c0,2.54-.58,4.97-1.7,7.23-2.75,5.47-8.27,8.86-14.39,8.86s-11.63-3.39-14.36-8.85Zm14.38,56.82l-2.89-3.55,2.92-12.06,2.95,11.86-2.98,3.76Z"/><path class="cls-2" d="m259.78,347.74c-1.66-1.01-3.33-1.77-5.01-2.28-.21-.15-.46-.25-.73-.28l-.61-.07c-.14-.03-.28-.05-.42-.08,2.48-.86,4.58-2.64,5.82-5.08.73-1.45,1.09-3.01,1.09-4.63,0-5.68-4.62-10.3-10.31-10.3s-10.3,4.62-10.3,10.3c0,1.62.37,3.18,1.09,4.63,1.23,2.45,3.33,4.23,5.82,5.09-.1.02-.19.03-.29.05l-.75.09c-.29.04-.56.15-.79.32-1.63.51-3.26,1.25-4.89,2.24-6.96,4.24-10.07,10.98-10.07,21.86,0,.9.73,1.63,1.63,1.63s1.63-.73,1.63-1.63c0-12.25,4.3-16.52,8.51-19.08,1.23-.75,2.44-1.33,3.64-1.75l2.52,3.34-2.36,9.75c-.12.49,0,1.02.32,1.41l3.06,3.75c.31.38.77.6,1.26.6h.01c.49,0,.96-.23,1.26-.62l3.06-3.86c.31-.4.43-.91.3-1.4l-2.4-9.64,2.53-3.35c1.21.43,2.44,1.01,3.68,1.77,4.21,2.56,8.51,6.83,8.51,19.08,0,.9.73,1.63,1.63,1.63s1.63-.73,1.63-1.63c0-10.88-3.11-17.62-10.07-21.86Zm-10.16,1.95l-1.23-1.63,1.23-.15,1.23.15-1.23,1.63Zm-6.3-11.21c-.5-.99-.75-2.06-.75-3.18,0-3.88,3.16-7.05,7.05-7.05s7.06,3.16,7.06,7.05c0,1.11-.25,2.18-.75,3.17-1.21,2.4-3.63,3.89-6.31,3.89s-5.1-1.49-6.3-3.88Zm6.3,24.91l-1.27-1.56,1.28-5.29,1.29,5.2-1.31,1.65Z"/><path class="cls-2" d="m176.71,58.62c-2.01-1.22-4.03-2.14-6.05-2.76-.26-.18-.56-.3-.88-.34l-.73-.09c-.17-.04-.34-.06-.51-.1,3-1.04,5.54-3.19,7.03-6.15.88-1.75,1.32-3.64,1.32-5.6,0-6.86-5.59-12.45-12.46-12.45s-12.45,5.58-12.45,12.45c0,1.96.44,3.84,1.32,5.6,1.48,2.96,4.02,5.11,7.04,6.15-.12.02-.23.04-.35.07l-.91.11c-.35.04-.68.18-.96.39-1.97.62-3.95,1.52-5.91,2.71-8.42,5.12-12.17,13.27-12.17,26.42,0,1.09.88,1.97,1.97,1.97s1.97-.88,1.97-1.97c0-14.81,5.2-19.97,10.28-23.06,1.49-.9,2.95-1.6,4.4-2.12l3.05,4.04-2.85,11.79c-.14.6,0,1.23.39,1.7l3.69,4.53c.37.46.93.72,1.52.72h.01c.6,0,1.16-.28,1.53-.74l3.7-4.66c.38-.48.51-1.1.37-1.7l-2.9-11.65,3.06-4.05c1.47.52,2.95,1.22,4.45,2.14,5.08,3.09,10.28,8.25,10.28,23.06,0,1.09.88,1.97,1.97,1.97s1.97-.88,1.97-1.97c0-13.15-3.75-21.3-12.17-26.42Zm-12.28,2.36l-1.49-1.97,1.49-.18,1.49.18-1.49,1.97Zm-7.61-13.55c-.6-1.2-.91-2.49-.91-3.84,0-4.7,3.82-8.52,8.52-8.52s8.53,3.82,8.53,8.52c0,1.34-.31,2.64-.9,3.83-1.46,2.9-4.38,4.7-7.63,4.7s-6.16-1.8-7.61-4.69Zm7.62,30.11l-1.53-1.88,1.55-6.39,1.56,6.29-1.58,1.99Z"/><path class="cls-1" d="m143.01,119.56c-.95,0-1.85-.36-2.54-1.01-.73-.69-1.15-1.67-1.15-2.68v-11.01h-2.29c-4.17,0-7.56-3.38-7.56-7.54V26.49c0-4.15,3.38-7.53,7.54-7.53h54.89c4.16,0,7.54,3.38,7.54,7.53v70.83c0,4.16-3.38,7.54-7.54,7.54h-29.99s-16.54,13.83-16.54,13.83c-.63.54-1.48.86-2.36.86Zm-6-94.31c-.69,0-1.25.55-1.25,1.24v70.83c0,.69.57,1.25,1.27,1.25h5.43c1.74,0,3.15,1.41,3.15,3.15v8.58l13.15-11c.57-.47,1.28-.73,2.02-.73h10.52s20.61,0,20.61,0c.68,0,1.25-.57,1.25-1.25V26.49c0-.68-.56-1.24-1.25-1.24h-54.89Z"/><rect class="cls-1" x="21.07" y="170.28" width="113.54" height="31.01" rx="6.1" ry="6.1"/><rect class="cls-3" x="80.59" y="178.3" width="43.31" height="4.02"/><rect class="cls-7" x="288.08" y="328.26" width="25.52" height="25.52" rx="3.4" ry="3.4"/><rect class="cls-1" x="277.35" y="357.79" width="46.97" height="12.83" rx="6.1" ry="6.1"/><rect class="cls-3" x="301.98" y="361.11" width="17.92" height="1.66"/><path class="cls-5" d="m127,264.41h-7.87l-3.13-8.14h-14.32l-2.96,8.14h-7.67l13.96-35.83h7.65l14.35,35.83Zm-13.32-14.17l-4.94-13.3-4.84,13.3h9.78Z"/><path class="cls-5" d="m286.3,228.58h14.32c2.83,0,4.95.12,6.34.35,1.39.24,2.64.73,3.74,1.48,1.1.75,2.02,1.75,2.75,2.99.73,1.25,1.1,2.64,1.1,4.19,0,1.68-.45,3.22-1.36,4.62-.9,1.4-2.13,2.45-3.68,3.15,2.18.64,3.86,1.72,5.03,3.25,1.17,1.53,1.76,3.33,1.76,5.4,0,1.63-.38,3.21-1.14,4.75s-1.79,2.77-3.1,3.69c-1.31.92-2.93,1.49-4.85,1.7-1.21.13-4.11.21-8.72.24h-12.2v-35.83Zm7.23,5.96v8.28h4.74c2.82,0,4.57-.04,5.25-.12,1.24-.15,2.21-.57,2.92-1.28.71-.71,1.06-1.64,1.06-2.8s-.31-2.01-.92-2.7c-.61-.69-1.52-1.11-2.73-1.26-.72-.08-2.78-.12-6.18-.12h-4.15Zm0,14.25v9.58h6.7c2.61,0,4.26-.07,4.96-.22,1.08-.2,1.95-.67,2.63-1.43.68-.76,1.01-1.77,1.01-3.04,0-1.08-.26-1.99-.78-2.74-.52-.75-1.28-1.3-2.26-1.64-.99-.34-3.12-.51-6.42-.51h-5.84Z"/><path class="cls-5" d="m209.88,574.91l7.01,2.22c-1.08,3.91-2.86,6.81-5.36,8.71-2.5,1.9-5.67,2.85-9.52,2.85-4.76,0-8.67-1.63-11.73-4.88-3.06-3.25-4.59-7.69-4.59-13.33,0-5.96,1.54-10.59,4.62-13.89s7.13-4.95,12.15-4.95c4.38,0,7.94,1.3,10.68,3.89,1.63,1.53,2.85,3.73,3.67,6.6l-7.16,1.71c-.42-1.86-1.31-3.32-2.65-4.4-1.34-1.08-2.98-1.61-4.9-1.61-2.66,0-4.81.95-6.46,2.86-1.65,1.91-2.48,4.99-2.48,9.26,0,4.53.81,7.76,2.44,9.68,1.63,1.92,3.75,2.88,6.35,2.88,1.92,0,3.58-.61,4.96-1.83,1.38-1.22,2.38-3.14,2.98-5.77Z"/><line class="cls-9" x1="11.64" y1="286.07" x2="11.64" y2="286.07"/><line class="cls-8" x1="17.67" y1="286.07" x2="388.58" y2="286.07"/><line class="cls-9" x1="391.59" y1="286.07" x2="391.59" y2="286.07"/><path class="cls-5" d="m348.95,358.72h-7.68c-.02-1.1-.03-1.78-.03-2.02,0-2.49.41-4.54,1.23-6.14.82-1.61,2.47-3.41,4.94-5.42,2.47-2.01,3.94-3.32,4.43-3.94.74-.98,1.11-2.07,1.11-3.25,0-1.65-.66-3.06-1.97-4.23-1.32-1.17-3.09-1.76-5.32-1.76s-3.94.61-5.39,1.84c-1.45,1.22-2.44,3.09-2.98,5.6l-7.77-.96c.22-3.59,1.75-6.64,4.59-9.15,2.84-2.51,6.57-3.76,11.19-3.76,4.86,0,8.72,1.27,11.59,3.81,2.87,2.54,4.31,5.5,4.31,8.87,0,1.87-.53,3.63-1.58,5.3-1.05,1.67-3.31,3.93-6.76,6.81-1.79,1.49-2.9,2.68-3.33,3.58-.43.9-.63,2.52-.59,4.85Zm-7.68,11.38v-8.46h8.46v8.46h-8.46Z"/></svg>