<?xml version="1.0" encoding="UTF-8"?>
<svg id="Capa_1" data-name="Capa 1" xmlns="http://www.w3.org/2000/svg" viewBox="0 0 5085.96 348.22">
  <defs>
    <style>
      .cls-1 {
        fill: none;
        stroke: #282859;
        stroke-linecap: round;
        stroke-linejoin: round;
        stroke-width: 12px;
      }

      .cls-2 {
        fill: #fff;
      }

      .cls-2, .cls-3 {
        stroke-width: 0px;
      }

      .cls-3 {
        fill: #282758;
        cursor: pointer;
      }
      .btn_rojo{
        fill:#8DC640;
      }
      
    </style>
  </defs>
  <line class="cls-1" x1="24.51" y1="181.69" x2="5049.19" y2="181.69"/>
  <polygon class="cls-3 btn4" points="4271.49 70.37 3534.13 70.37 3645.45 181.69 3534.13 293.01 4271.49 293.01 4382.81 181.69 4271.49 70.37"/>
  <polygon class="cls-3 btn3" points="3423.83 70.37 2686.47 70.37 2797.79 181.69 2686.47 293.01 3423.83 293.01 3535.15 181.69 3423.83 70.37"/>
  <polygon class="cls-3 btn2" points="2576.17 70.37 1838.81 70.37 1950.13 181.69 1838.81 293.01 2576.17 293.01 2687.49 181.69 2576.17 70.37"/>
  <polygon class="cls-3 btn1 btn_rojo" points="1728.51 70.37 991.15 70.37 1102.47 181.69 991.15 293.01 1728.51 293.01 1839.83 181.69 1728.51 70.37"/>
  <g>
    <path class="cls-2" d="m1248.42,207.6h21.44v-56.74h-18.37v-14.08c10.52-2,17.46-4.67,24.33-8.92h16.74v79.75h18.37v18.32h-62.5v-18.32Z"/>
    <path class="cls-2" d="m1325.88,215.96l12-13.58c3.33,3.78,9.48,7.07,15.2,7.07,11.53,0,20.4-8.7,20.4-34.84,0-24.34-7.65-31.57-15.93-31.57-6.7,0-12.35,4.74-12.35,15.82,0,10.37,5.47,14.29,12.88,14.29,5.12,0,10.81-2.85,15.25-10.57l1.02,14.83c-5.07,7.43-14.21,11.77-20.65,11.77-16.79,0-29.21-9.54-29.21-30.32s14.84-32.87,32.61-32.87c19,0,37.1,14.19,37.1,48.62,0,36.66-19.02,53.15-39.64,53.15-12.97,0-22.49-5.49-28.67-11.81Z"/>
    <path class="cls-2" d="m1404.26,213.98l10.21-14.34c5.87,5.41,12.83,9.81,21.18,9.81,10.03,0,16.47-5.32,16.47-15.38s-6.32-15.16-15.4-15.16c-5.68,0-8.65,1.25-14.51,5.01l-10.12-6.54,2.69-49.53h55.62v19.08h-36.02l-1.62,18.39c3.72-1.59,6.86-2.25,10.9-2.25,16.93,0,31.23,9.57,31.23,30.43s-16.84,34.26-35.97,34.26c-16,0-26.94-6.09-34.65-13.79Z"/>
    <path class="cls-2" d="m1488.59,179.16c0-36.66,19.02-53.16,39.64-53.16,12.97,0,22.46,5.49,28.67,11.81l-12,13.58c-3.33-3.78-9.48-7.07-15.2-7.07-11.41,0-20.4,8.7-20.4,34.84,0,24.34,7.65,31.57,15.93,31.57,6.7,0,12.35-4.74,12.35-15.82,0-10.37-5.47-14.29-12.88-14.29-5.12,0-10.81,2.85-15.25,10.57l-1.02-14.83c5.07-7.43,14.21-11.77,20.65-11.77,16.79,0,29.21,9.54,29.21,30.32s-14.84,32.87-32.61,32.87c-19,0-37.1-14.19-37.1-48.62Z"/>
  </g>
  <g>
    <path class="cls-2" d="m2132.21,214.76c24.96-23.59,42.54-40.34,42.54-54.38,0-9.48-5.27-14.71-13.89-14.71-6.97,0-12.51,4.8-17.42,9.97l-12.3-12.25c9.65-10.32,18.8-15.53,32.83-15.53,19.33,0,32.52,12.34,32.52,31.25,0,16.51-15.42,34.11-31.48,50.71,5.05-.56,11.88-1.13,16.42-1.13h19.74v19.08h-68.97v-13.01Z"/>
    <path class="cls-2" d="m2213.71,178.3c0-33.37,14.01-50.45,35.08-50.45s35.08,17.2,35.08,50.45-14.01,51.32-35.08,51.32-35.08-17.95-35.08-51.32Zm48.69,0c0-26.76-5.96-32.89-13.6-32.89s-13.6,6.14-13.6,32.89,5.96,33.77,13.6,33.77,13.6-7.01,13.6-33.77Z"/>
    <path class="cls-2" d="m2295.24,178.3c0-33.37,14.01-50.45,35.08-50.45s35.08,17.2,35.08,50.45-14.01,51.32-35.08,51.32-35.08-17.95-35.08-51.32Zm48.69,0c0-26.76-5.96-32.89-13.6-32.89s-13.6,6.14-13.6,32.89,5.96,33.77,13.6,33.77,13.6-7.01,13.6-33.77Z"/>
    <path class="cls-2" d="m2421.84,148.79h-43.96v-19.08h68.26v13.98c-22.76,27.36-25.89,45.87-27.68,84.09h-22.81c1.8-32.62,7.65-53.3,26.19-78.98Z"/>
  </g>
  <g>
    <path class="cls-2" d="m2981.97,212.91c24.96-23.59,42.54-40.34,42.54-54.38,0-9.48-5.27-14.71-13.89-14.71-6.97,0-12.51,4.8-17.42,9.97l-12.3-12.25c9.65-10.32,18.8-15.53,32.83-15.53,19.33,0,32.52,12.34,32.52,31.25,0,16.51-15.42,34.11-31.48,50.71,5.05-.56,11.88-1.13,16.42-1.13h19.74v19.08h-68.97v-13.01Z"/>
    <path class="cls-2" d="m3063.47,176.45c0-33.37,14.01-50.45,35.08-50.45s35.08,17.2,35.08,50.45-14.01,51.32-35.08,51.32-35.08-17.95-35.08-51.32Zm48.69,0c0-26.76-5.96-32.89-13.6-32.89s-13.6,6.14-13.6,32.89,5.96,33.77,13.6,33.77,13.6-7.01,13.6-33.77Z"/>
    <path class="cls-2" d="m3145,176.45c0-33.37,14.01-50.45,35.08-50.45s35.08,17.2,35.08,50.45-14.01,51.32-35.08,51.32-35.08-17.95-35.08-51.32Zm48.69,0c0-26.76-5.96-32.89-13.6-32.89s-13.6,6.14-13.6,32.89,5.96,33.77,13.6,33.77,13.6-7.01,13.6-33.77Z"/>
    <path class="cls-2" d="m3227.52,215.96l12-13.58c3.33,3.78,9.48,7.07,15.2,7.07,11.53,0,20.4-8.7,20.4-34.84,0-24.34-7.65-31.57-15.93-31.57-6.7,0-12.35,4.74-12.35,15.82,0,10.37,5.47,14.29,12.88,14.29,5.12,0,10.81-2.85,15.25-10.57l1.02,14.83c-5.07,7.43-14.21,11.77-20.65,11.77-16.79,0-29.21-9.54-29.21-30.32s14.84-32.87,32.61-32.87c19,0,37.1,14.19,37.1,48.62,0,36.66-19.02,53.15-39.64,53.15-12.97,0-22.49-5.49-28.67-11.81Z"/>
  </g>
  <g>
    <path class="cls-2" d="m3803.08,216.61c24.96-23.59,42.54-40.34,42.54-54.38,0-9.48-5.27-14.71-13.89-14.71-6.97,0-12.51,4.8-17.42,9.97l-12.3-12.25c9.65-10.32,18.8-15.53,32.83-15.53,19.33,0,32.52,12.34,32.52,31.25,0,16.51-15.42,34.11-31.48,50.71,5.05-.56,11.88-1.13,16.42-1.13h19.74v19.08h-68.97v-13.01Z"/>
    <path class="cls-2" d="m3884.58,180.16c0-33.37,14.01-50.45,35.08-50.45s35.08,17.2,35.08,50.45-14.01,51.32-35.08,51.32-35.08-17.95-35.08-51.32Zm48.69,0c0-26.76-5.96-32.89-13.6-32.89s-13.6,6.14-13.6,32.89,5.96,33.77,13.6,33.77,13.6-7.01,13.6-33.77Z"/>
    <path class="cls-2" d="m3971.16,211.3h21.44v-56.74h-18.37v-14.08c10.52-2,17.46-4.67,24.33-8.92h16.74v79.75h18.37v18.32h-62.5v-18.32Z"/>
    <path class="cls-2" d="m4048.39,204.55c0-11.81,7.5-19.15,16.77-24.09v-.62c-7.61-5.65-13.19-12.81-13.19-23.05,0-16.7,13.15-27.09,31.38-27.09s29.81,10.61,29.81,26.91c0,9.34-6.1,16.93-12.81,21.43v.62c9.36,5.12,16.91,12.63,16.91,25.65,0,15.48-13.9,27.16-34.68,27.16-19.57,0-34.19-10.97-34.19-26.92Zm47.77-1c0-8.68-8.37-11.95-20.69-17.11-4.32,3.89-7.52,9.48-7.52,15.56,0,8.59,6.87,13.69,15.13,13.69,7.45,0,13.07-3.98,13.07-12.15Zm-1.43-45.41c0-7.61-4.41-12.66-11.89-12.66-6.01,0-10.91,3.76-10.91,11.31,0,7.95,6.83,11.79,16.8,15.76,3.87-4.56,6.01-9.28,6.01-14.42Z"/>
  </g>
</svg>