<svg xmlns="http://www.w3.org/2000/svg" viewBox="0 0 6984.57 263.9"><defs><style>.cls-1{fill:#882d2b;cursor:pointer;}.cls-2{fill:#fff;cursor:pointer;}.btn_rojo{fill:#D03524;}</style></defs><g id="Capa_2" data-name="Capa 2"><g id="Capa_1-2" data-name="Capa 1"><polygon class="cls-1 btn1 btn_rojo" points="633.36 0 0 0 0 263.9 633.36 263.9 757.19 131.95 633.36 0"/><path class="cls-2 letra_a1" d="M231.19,124V113.5a68.08,68.08,0,0,0,10.22-1,14.44,14.44,0,0,0,7.57-4.12,13.46,13.46,0,0,0,3-5.64,12.88,12.88,0,0,0,.6-3.15h12.9v78.63H249.68V124Z"/><path class="cls-2 letra_b1" d="M295.85,106.81Q303.14,99,314.8,99q18,0,24.62,15.89,3.79,9,3.8,23.7,0,14.26-3.63,23.8-6.94,18.16-25.49,18.17a26,26,0,0,1-15.89-5.23q-7.05-5.24-8.08-15.27h15.4a9.27,9.27,0,0,0,2.93,5.64,9,9,0,0,0,6.34,2.17q7.65,0,10.74-8.46,1.68-4.66,2.12-13.61a16.76,16.76,0,0,1-4.5,4.07,20.52,20.52,0,0,1-10.69,2.6A24.32,24.32,0,0,1,295.82,146q-7.26-6.48-7.26-18.68Q288.56,114.65,295.85,106.81Zm26,31.21q5.26-3.37,5.26-11.66,0-6.67-3.11-10.58a10.35,10.35,0,0,0-8.55-3.9,10.62,10.62,0,0,0-6.77,2.22q-4.46,3.48-4.45,11.77,0,7,2.85,10.49t8.75,3.5A10.86,10.86,0,0,0,321.85,138Z"/><path class="cls-2 letra_c1" d="M365.13,154.12a17.71,17.71,0,0,0,1.51,7.81q2.82,5.7,10.23,5.69a11.33,11.33,0,0,0,7.92-3.11q3.39-3.12,3.38-9,0-7.75-6.27-10.36-3.57-1.46-11.24-1.46V132.65c5-.08,8.5-.56,10.48-1.47q5.13-2.28,5.14-9.22a10.32,10.32,0,0,0-2.63-7.32,9.59,9.59,0,0,0-7.38-2.82q-5.46,0-8,3.47t-2.46,9.28H351.35a39.09,39.09,0,0,1,2-11.12,24.94,24.94,0,0,1,6-8.51,20.53,20.53,0,0,1,7.2-4.23,31,31,0,0,1,10.24-1.47q11.26,0,18.17,5.83t6.91,15.65a17.32,17.32,0,0,1-4.12,11.71,14.24,14.24,0,0,1-5.42,4.07q2.11,0,6.07,3.63,5.91,5.48,5.91,15a25.19,25.19,0,0,1-6.91,17.54q-6.9,7.56-20.45,7.56-16.68,0-23.18-10.9-3.42-5.79-3.8-15.18Z"/><path class="cls-2 letra_d1" d="M414.7,144.47a19,19,0,0,1,8.76-8.08q-5.71-3.79-7.43-8.22a22.77,22.77,0,0,1-1.72-8.27,19.28,19.28,0,0,1,6.47-14.61q6.47-6,18.26-6.05t18.26,6.05a19.28,19.28,0,0,1,6.47,14.61,23,23,0,0,1-1.71,8.27q-1.71,4.43-7.4,7.68a21.87,21.87,0,0,1,8.77,8.62,24.52,24.52,0,0,1,2.94,12A22.37,22.37,0,0,1,459,173.34q-7.35,7-20.54,7t-20-7a23.31,23.31,0,0,1-6.78-16.89A24.23,24.23,0,0,1,414.7,144.47Zm16.07,19.95c2,2.14,4.78,3.2,8.32,3.2s6.32-1.06,8.33-3.2,3-5.13,3-9-1-7.06-3.07-9.13a12.52,12.52,0,0,0-16.54,0q-3.06,3.11-3.06,9.13Q427.76,161.23,430.77,164.42Zm1-35.79a9.74,9.74,0,0,0,7.32,2.72q4.73,0,7.31-2.72a9.72,9.72,0,0,0,2.58-7,10,10,0,0,0-2.58-7.29c-1.72-1.76-4.16-2.63-7.31-2.63a9.12,9.12,0,0,0-9.95,9.92A9.58,9.58,0,0,0,431.75,128.63Z"/><polygon class="cls-1 btn2" points="1325.29 0 691.93 0 811.93 131.95 691.93 263.9 1325.29 263.9 1449.12 131.95 1325.29 0"/><path class="cls-2 letra_a2" d="M942.06,124V113.5a67.78,67.78,0,0,0,10.22-1,14.47,14.47,0,0,0,7.58-4.12,13.69,13.69,0,0,0,3-5.64,13.25,13.25,0,0,0,.59-3.15h12.91v78.63H960.55V124Z"/><path class="cls-2 letra_b2" d="M1006.73,106.81q7.29-7.84,19-7.84,17.94,0,24.62,15.89,3.79,9,3.79,23.7,0,14.26-3.63,23.8-6.95,18.16-25.49,18.17a25.94,25.94,0,0,1-15.88-5.23Q1002,170.07,1001,160h15.4a9.26,9.26,0,0,0,2.92,5.64,9.08,9.08,0,0,0,6.35,2.17q7.65,0,10.74-8.46,1.68-4.66,2.11-13.61a16.76,16.76,0,0,1-4.5,4.07,20.46,20.46,0,0,1-10.68,2.6A24.28,24.28,0,0,1,1006.7,146q-7.28-6.48-7.27-18.68Q999.43,114.65,1006.73,106.81Zm26,31.21q5.26-3.37,5.26-11.66,0-6.67-3.12-10.58a10.35,10.35,0,0,0-8.54-3.9,10.63,10.63,0,0,0-6.78,2.22q-4.44,3.48-4.45,11.77,0,7,2.85,10.49t8.76,3.5A10.88,10.88,0,0,0,1032.73,138Z"/><path class="cls-2 letra_c2" d="M1116,161.33h-8.9v16.92H1092V161.33h-31.13v-13.5l28.9-47.72h17.35v49.13h8.9Zm-24-12.09V115.37l-19.63,33.87Z"/><path class="cls-2 letra_d2" d="M1178.22,112.75a96.77,96.77,0,0,0-9.67,12.17,99.83,99.83,0,0,0-16.35,36,74,74,0,0,0-2.67,17.35h-16q.7-21.15,13.9-44,8.52-14.15,14.27-19.73h-39.17l.21-13.89h55.53Z"/><polygon class="cls-1 btn3" points="2017.22 0 1383.86 0 1503.86 131.95 1383.86 263.9 2017.22 263.9 2141.05 131.95 2017.22 0"/><path class="cls-2 letra_a3" d="M1634,124V113.5a67.78,67.78,0,0,0,10.22-1,14.47,14.47,0,0,0,7.58-4.12,13.69,13.69,0,0,0,3-5.64,13.25,13.25,0,0,0,.59-3.15h12.91v78.63h-15.84V124Z"/><path class="cls-2 letra_b3" d="M1698.66,106.81Q1706,99,1717.61,99q17.94,0,24.62,15.89,3.8,9,3.79,23.7,0,14.26-3.63,23.8-6.95,18.16-25.49,18.17A25.94,25.94,0,0,1,1701,175.3q-7.05-5.24-8.08-15.27h15.4a9.26,9.26,0,0,0,2.92,5.64,9.06,9.06,0,0,0,6.35,2.17q7.65,0,10.74-8.46,1.68-4.66,2.11-13.61a16.76,16.76,0,0,1-4.5,4.07,20.46,20.46,0,0,1-10.68,2.6,24.28,24.28,0,0,1-16.65-6.48q-7.28-6.48-7.27-18.68Q1691.36,114.65,1698.66,106.81Zm26,31.21q5.25-3.37,5.26-11.66,0-6.67-3.12-10.58a10.35,10.35,0,0,0-8.54-3.9,10.63,10.63,0,0,0-6.78,2.22q-4.44,3.48-4.45,11.77,0,7,2.85,10.49t8.76,3.5A10.88,10.88,0,0,0,1724.66,138Z"/><path class="cls-2 letra_c3" d="M1768.15,157.21a14.82,14.82,0,0,0,3.52,7.78q2.6,2.74,7.57,2.74,5.73,0,8.74-4a16.58,16.58,0,0,0,3-10.17,17.7,17.7,0,0,0-2.81-10.16q-2.82-4.16-8.77-4.15a15.08,15.08,0,0,0-4.87.7,9.69,9.69,0,0,0-5.46,4.83l-13.86-.65,5.52-43.44H1804v13.13h-32.11L1769.07,131a31.21,31.21,0,0,1,5.58-3.09,23.32,23.32,0,0,1,8.17-1.25,24.58,24.58,0,0,1,17,6.56q7.25,6.56,7.25,19.09a30,30,0,0,1-7,19.46q-7,8.58-20.92,8.57-11.21,0-18.41-6t-8-17.08Z"/><path class="cls-2 letra_d3" d="M1869.66,161.33h-8.89v16.92h-15.13V161.33h-31.13v-13.5l28.91-47.72h17.35v49.13h8.89Zm-24-12.09V115.37L1826,149.24Z"/><polygon class="cls-1 btn4" points="2709.16 0 2075.79 0 2195.79 131.95 2075.79 263.9 2709.16 263.9 2832.99 131.95 2709.16 0"/><path class="cls-2 letra_a4" d="M2325.93,124V113.5a67.93,67.93,0,0,0,10.22-1,14.4,14.4,0,0,0,7.57-4.12,13.46,13.46,0,0,0,3-5.64,12.88,12.88,0,0,0,.6-3.15h12.9v78.63h-15.83V124Z"/><path class="cls-2 letra_b4" d="M2390.59,106.81q7.3-7.84,19-7.84,17.94,0,24.62,15.89,3.79,9,3.79,23.7,0,14.26-3.63,23.8-6.95,18.16-25.49,18.17A26,26,0,0,1,2393,175.3q-7-5.24-8.08-15.27h15.4a9.27,9.27,0,0,0,2.93,5.64,9.06,9.06,0,0,0,6.35,2.17q7.63,0,10.73-8.46,1.68-4.66,2.12-13.61a16.76,16.76,0,0,1-4.5,4.07,20.52,20.52,0,0,1-10.69,2.6,24.28,24.28,0,0,1-16.64-6.48q-7.28-6.48-7.27-18.68Q2383.3,114.65,2390.59,106.81Zm26,31.21q5.25-3.37,5.26-11.66,0-6.67-3.12-10.58a10.35,10.35,0,0,0-8.54-3.9,10.63,10.63,0,0,0-6.78,2.22q-4.46,3.48-4.45,11.77,0,7,2.85,10.49t8.76,3.5A10.88,10.88,0,0,0,2416.6,138Z"/><path class="cls-2 letra_c4" d="M2460.09,157.21a14.89,14.89,0,0,0,3.51,7.78q2.59,2.74,7.58,2.74,5.73,0,8.73-4a16.58,16.58,0,0,0,3-10.17,17.63,17.63,0,0,0-2.82-10.16q-2.8-4.16-8.76-4.15a15,15,0,0,0-4.87.7,9.66,9.66,0,0,0-5.46,4.83l-13.86-.65,5.52-43.44h43.26v13.13h-32.11L2461,131a31.55,31.55,0,0,1,5.57-3.09,23.42,23.42,0,0,1,8.18-1.25,24.54,24.54,0,0,1,17,6.56q7.26,6.56,7.26,19.09a30,30,0,0,1-7,19.46q-7,8.58-20.91,8.57-11.2,0-18.42-6t-8-17.08Z"/><path class="cls-2 letra_d4" d="M2544.25,119.42a7.87,7.87,0,0,0-1.47-4.18,8.47,8.47,0,0,0-7.53-3.69q-7.55,0-10.74,8.46-1.74,4.67-2.39,13.78a17.37,17.37,0,0,1,6.67-5,22.5,22.5,0,0,1,8.68-1.58q10.47,0,17.16,7.11t6.7,18.16a30.72,30.72,0,0,1-6.56,19.42q-6.57,8.4-20.39,8.4-14.87,0-21.91-12.42-5.47-9.7-5.48-25a115,115,0,0,1,.76-14.64,44.94,44.94,0,0,1,5.26-16.7,27,27,0,0,1,8.81-9.17,23.82,23.82,0,0,1,13-3.47q11,0,17.46,5.62a21.32,21.32,0,0,1,7.32,14.94Zm-18.33,44.3a10.91,10.91,0,0,0,8.67,4,9.62,9.62,0,0,0,8.11-3.88,16.11,16.11,0,0,0,3-10q0-6.88-3.36-10.55a10.78,10.78,0,0,0-8.25-3.66,11,11,0,0,0-7,2.38q-4.56,3.53-4.56,11.39A15.43,15.43,0,0,0,2525.92,163.72Z"/><polygon class="cls-1 btn5" points="3401.09 0 2767.72 0 2887.72 131.95 2767.72 263.9 3401.09 263.9 3524.92 131.95 3401.09 0"/><path class="cls-2 letra_a5" d="M3017.86,124V113.5a67.93,67.93,0,0,0,10.22-1,14.4,14.4,0,0,0,7.57-4.12,13.46,13.46,0,0,0,3-5.64,12.88,12.88,0,0,0,.6-3.15h12.9v78.63h-15.83V124Z"/><path class="cls-2 letra_b5" d="M3082.52,106.81q7.3-7.84,19-7.84,17.94,0,24.62,15.89,3.8,9,3.79,23.7,0,14.26-3.63,23.8-6.95,18.16-25.49,18.17a26,26,0,0,1-15.89-5.23q-7.05-5.24-8.08-15.27h15.4a9.27,9.27,0,0,0,2.93,5.64,9.06,9.06,0,0,0,6.35,2.17q7.64,0,10.73-8.46,1.68-4.66,2.12-13.61a16.76,16.76,0,0,1-4.5,4.07,20.52,20.52,0,0,1-10.69,2.6A24.28,24.28,0,0,1,3082.5,146q-7.27-6.48-7.27-18.68Q3075.23,114.65,3082.52,106.81Zm26,31.21q5.25-3.37,5.26-11.66,0-6.67-3.12-10.58a10.35,10.35,0,0,0-8.54-3.9,10.63,10.63,0,0,0-6.78,2.22q-4.45,3.48-4.45,11.77,0,7,2.85,10.49t8.76,3.5A10.88,10.88,0,0,0,3108.53,138Z"/><path class="cls-2 letra_c5" d="M3174.41,119.42a7.93,7.93,0,0,0-1.46-4.18,8.5,8.5,0,0,0-7.54-3.69q-7.54,0-10.74,8.46-1.73,4.67-2.38,13.78a17.3,17.3,0,0,1,6.67-5,22.45,22.45,0,0,1,8.67-1.58q10.47,0,17.17,7.11t6.69,18.16a30.66,30.66,0,0,1-6.56,19.42q-6.55,8.4-20.39,8.4-14.85,0-21.91-12.42-5.48-9.7-5.47-25a113.19,113.19,0,0,1,.76-14.64,44.57,44.57,0,0,1,5.26-16.7,27,27,0,0,1,8.81-9.17,23.79,23.79,0,0,1,13-3.47q10.95,0,17.46,5.62a21.32,21.32,0,0,1,7.32,14.94Zm-18.33,44.3a10.92,10.92,0,0,0,8.68,4,9.64,9.64,0,0,0,8.11-3.88q3-3.87,3-10,0-6.88-3.36-10.55a10.76,10.76,0,0,0-8.24-3.66,11,11,0,0,0-7,2.38q-4.54,3.53-4.55,11.39A15.47,15.47,0,0,0,3156.08,163.72Z"/><path class="cls-2 letra_d5" d="M3201.37,144.47a19,19,0,0,1,8.76-8.08q-5.72-3.79-7.43-8.22a22.77,22.77,0,0,1-1.72-8.27,19.28,19.28,0,0,1,6.47-14.61q6.47-6,18.26-6.05t18.26,6.05a19.28,19.28,0,0,1,6.47,14.61,23,23,0,0,1-1.71,8.27q-1.71,4.43-7.4,7.68a21.87,21.87,0,0,1,8.77,8.62,24.52,24.52,0,0,1,2.94,12,22.4,22.4,0,0,1-7.35,16.89q-7.36,7-20.55,7t-20-7a23.28,23.28,0,0,1-6.79-16.89A24.23,24.23,0,0,1,3201.37,144.47Zm16.07,19.95c2,2.14,4.78,3.2,8.33,3.2s6.31-1.06,8.32-3.2,3-5.13,3-9-1-7.06-3.06-9.13a12.52,12.52,0,0,0-16.54,0q-3.08,3.11-3.07,9.13Q3214.43,161.23,3217.44,164.42Zm1-35.79a9.74,9.74,0,0,0,7.32,2.72q4.73,0,7.31-2.72a9.72,9.72,0,0,0,2.58-7,10,10,0,0,0-2.58-7.29c-1.72-1.76-4.16-2.63-7.31-2.63a9.12,9.12,0,0,0-9.95,9.92A9.63,9.63,0,0,0,3218.42,128.63Z"/><polygon class="cls-1 btn6" points="4093.02 0 3459.66 0 3579.65 131.95 3459.66 263.9 4093.02 263.9 4216.85 131.95 4093.02 0"/><path class="cls-2 letra_a6" d="M3709.79,124V113.5a68.08,68.08,0,0,0,10.22-1,14.4,14.4,0,0,0,7.57-4.12,13.46,13.46,0,0,0,3-5.64,12.88,12.88,0,0,0,.6-3.15h12.9v78.63h-15.83V124Z"/><path class="cls-2 letra_b6" d="M3774.45,106.81q7.31-7.84,19-7.84,17.94,0,24.62,15.89,3.79,9,3.79,23.7,0,14.26-3.63,23.8-6.95,18.16-25.49,18.17a26,26,0,0,1-15.89-5.23q-7-5.24-8.08-15.27h15.4a9.27,9.27,0,0,0,2.93,5.64,9.06,9.06,0,0,0,6.35,2.17q7.64,0,10.73-8.46,1.68-4.66,2.12-13.61a16.76,16.76,0,0,1-4.5,4.07,20.52,20.52,0,0,1-10.69,2.6,24.28,24.28,0,0,1-16.64-6.48q-7.28-6.48-7.27-18.68Q3767.16,114.65,3774.45,106.81Zm26,31.21q5.25-3.37,5.26-11.66,0-6.67-3.12-10.58a10.35,10.35,0,0,0-8.54-3.9,10.63,10.63,0,0,0-6.78,2.22q-4.46,3.48-4.45,11.77,0,7,2.85,10.49t8.76,3.5A10.88,10.88,0,0,0,3800.46,138Z"/><path class="cls-2 letra_c6" d="M3831.54,144.47a19,19,0,0,1,8.75-8.08q-5.72-3.79-7.43-8.22a23,23,0,0,1-1.71-8.27,19.27,19.27,0,0,1,6.46-14.61q6.48-6,18.27-6.05t18.26,6.05a19.27,19.27,0,0,1,6.46,14.61,23.15,23.15,0,0,1-1.7,8.27q-1.71,4.43-7.41,7.68a21.8,21.8,0,0,1,8.77,8.62,24.42,24.42,0,0,1,2.95,12,22.41,22.41,0,0,1-7.36,16.89q-7.35,7-20.54,7t-20-7a23.31,23.31,0,0,1-6.78-16.89A24.12,24.12,0,0,1,3831.54,144.47Zm16.07,19.95c2,2.14,4.78,3.2,8.32,3.2s6.32-1.06,8.32-3.2,3-5.13,3-9-1-7.06-3.06-9.13a12.52,12.52,0,0,0-16.54,0q-3.06,3.11-3.06,9.13Q3844.6,161.23,3847.61,164.42Zm1-35.79a9.9,9.9,0,0,0,17.21-7,10,10,0,0,0-2.58-7.29c-1.73-1.76-4.16-2.63-7.32-2.63a9.13,9.13,0,0,0-10,9.92A9.59,9.59,0,0,0,3848.59,128.63Z"/><path class="cls-2 letra_d6" d="M3945.46,161.33h-8.89v16.92h-15.13V161.33h-31.13v-13.5l28.9-47.72h17.36v49.13h8.89Zm-24-12.09V115.37l-19.63,33.87Z"/><polygon class="cls-1 btn7" points="4784.95 0 4151.59 0 4271.58 131.95 4151.59 263.9 4784.95 263.9 4908.78 131.95 4784.95 0"/><path class="cls-2 letra_a7" d="M4401.72,124V113.5a68.08,68.08,0,0,0,10.22-1,14.4,14.4,0,0,0,7.57-4.12,13.46,13.46,0,0,0,3-5.64,12.88,12.88,0,0,0,.6-3.15H4436v78.63h-15.83V124Z"/><path class="cls-2 letra_b7" d="M4466.38,106.81q7.3-7.84,19-7.84,17.94,0,24.62,15.89,3.79,9,3.79,23.7,0,14.26-3.63,23.8-6.95,18.16-25.49,18.17a26,26,0,0,1-15.89-5.23q-7-5.24-8.08-15.27h15.4a9.27,9.27,0,0,0,2.93,5.64,9.06,9.06,0,0,0,6.35,2.17q7.64,0,10.73-8.46,1.68-4.66,2.12-13.61a16.76,16.76,0,0,1-4.5,4.07,20.52,20.52,0,0,1-10.69,2.6,24.28,24.28,0,0,1-16.64-6.48q-7.27-6.48-7.27-18.68Q4459.09,114.65,4466.38,106.81Zm26,31.21q5.25-3.37,5.26-11.66,0-6.67-3.12-10.58a10.35,10.35,0,0,0-8.54-3.9,10.63,10.63,0,0,0-6.78,2.22q-4.46,3.48-4.45,11.77,0,7,2.85,10.49t8.76,3.5A10.88,10.88,0,0,0,4492.39,138Z"/><path class="cls-2 letra_c7" d="M4528.15,106.81q7.29-7.84,19-7.84,18,0,24.62,15.89,3.79,9,3.8,23.7,0,14.26-3.64,23.8-6.95,18.16-25.48,18.17a26,26,0,0,1-15.89-5.23q-7-5.24-8.08-15.27h15.4a9.22,9.22,0,0,0,2.93,5.64,9,9,0,0,0,6.34,2.17q7.65,0,10.74-8.46,1.68-4.66,2.11-13.61a16.76,16.76,0,0,1-4.5,4.07,20.46,20.46,0,0,1-10.68,2.6,24.28,24.28,0,0,1-16.65-6.48q-7.26-6.48-7.27-18.68Q4520.85,114.65,4528.15,106.81Zm26,31.21q5.27-3.37,5.26-11.66,0-6.67-3.12-10.58a10.34,10.34,0,0,0-8.54-3.9,10.63,10.63,0,0,0-6.78,2.22q-4.44,3.48-4.44,11.77,0,7,2.84,10.49t8.76,3.5A10.88,10.88,0,0,0,4554.15,138Z"/><path class="cls-2 letra_d7" d="M4597.42,154.12a17.7,17.7,0,0,0,1.52,7.81q2.81,5.7,10.22,5.69a11.37,11.37,0,0,0,7.93-3.11q3.38-3.12,3.38-9,0-7.75-6.27-10.36-3.57-1.46-11.25-1.46V132.65c5-.08,8.51-.56,10.49-1.47q5.13-2.28,5.13-9.22a10.31,10.31,0,0,0-2.62-7.32,9.59,9.59,0,0,0-7.38-2.82c-3.65,0-6.32,1.16-8,3.47s-2.53,5.41-2.46,9.28h-14.42a38.73,38.73,0,0,1,2-11.12,25.08,25.08,0,0,1,6-8.51,20.57,20.57,0,0,1,7.21-4.23,31,31,0,0,1,10.24-1.47q11.26,0,18.17,5.83t6.91,15.65a17.27,17.27,0,0,1-4.13,11.71,14.09,14.09,0,0,1-5.42,4.07q2.11,0,6.08,3.63,5.91,5.48,5.91,15a25.24,25.24,0,0,1-6.91,17.54q-6.91,7.56-20.45,7.56-16.7,0-23.19-10.9-3.4-5.79-3.79-15.18Z"/><polygon class="cls-1 btn8" points="5476.88 0 4843.52 0 4963.51 131.95 4843.52 263.9 5476.88 263.9 5600.71 131.95 5476.88 0"/><path class="cls-2 letra_a8" d="M5093.05,162.8q3.31-7.86,15.62-16.65,10.68-7.65,13.83-11a16.23,16.23,0,0,0,4.82-11.28,12.5,12.5,0,0,0-2.76-8.3q-2.78-3.32-7.92-3.31-7.05,0-9.6,5.26c-1,2-1.55,5.24-1.73,9.65h-15q.39-10,3.64-16.21,6.19-11.76,22-11.77,12.48,0,19.86,6.92t7.39,18.3a24.74,24.74,0,0,1-5.22,15.51q-3.42,4.5-11.25,10l-6.19,4.39q-5.82,4.13-7.95,6a17.26,17.26,0,0,0-3.61,4.28h34.32v13.61h-53.84A36.8,36.8,0,0,1,5093.05,162.8Z"/><path class="cls-2 letra_b8" d="M5199.36,109.65q6,10.57,6.05,30t-6.05,30q-6,10.53-21.06,10.52t-21.07-10.52q-6-10.52-6-30t6-30q6-10.56,21.07-10.57T5199.36,109.65Zm-30.17,50.79q2.22,7.19,9.11,7.18t9-7.18q2.15-7.19,2.15-20.74,0-14.22-2.15-21t-9-6.84q-6.9,0-9.11,6.84t-2.23,21Q5167,153.25,5169.19,160.44Z"/><path class="cls-2 letra_c8" d="M5261.13,109.65q6,10.57,6,30t-6,30q-6,10.53-21.07,10.52T5219,169.68q-6-10.52-6-30t6-30q6-10.56,21.07-10.57T5261.13,109.65ZM5231,160.44q2.22,7.19,9.11,7.18t9-7.18q2.15-7.19,2.14-20.74,0-14.22-2.14-21t-9-6.84q-6.89,0-9.11,6.84t-2.22,21Q5228.73,153.25,5231,160.44Z"/><path class="cls-2 letra_d8" d="M5329.32,161.33h-8.89v16.92H5305.3V161.33h-31.13v-13.5l28.9-47.72h17.36v49.13h8.89Zm-24-12.09V115.37l-19.63,33.87Z"/><polygon class="cls-1 btn9" points="6168.81 0 5535.45 0 5655.44 131.95 5535.45 263.9 6168.81 263.9 6292.64 131.95 6168.81 0"/><path class="cls-2 letra_a9" d="M5785,162.8q3.3-7.86,15.62-16.65,10.68-7.65,13.82-11a16.2,16.2,0,0,0,4.83-11.28,12.46,12.46,0,0,0-2.77-8.3q-2.76-3.32-7.91-3.31-7,0-9.6,5.26c-1,2-1.56,5.24-1.74,9.65h-15q.38-10,3.64-16.21,6.18-11.76,22-11.77,12.49,0,19.87,6.92t7.38,18.3a24.73,24.73,0,0,1-5.21,15.51q-3.42,4.5-11.25,10l-6.19,4.39q-5.82,4.13-8,6a17.22,17.22,0,0,0-3.6,4.28h34.32v13.61h-53.85A37,37,0,0,1,5785,162.8Z"/><path class="cls-2 letra_b9" d="M5891.3,109.65q6,10.57,6.05,30t-6.05,30q-6,10.53-21.07,10.52t-21.06-10.52q-6.06-10.52-6.05-30t6.05-30q6-10.56,21.06-10.57T5891.3,109.65Zm-30.18,50.79q2.23,7.19,9.11,7.18t9-7.18q2.14-7.19,2.14-20.74,0-14.22-2.14-21t-9-6.84q-6.88,0-9.11,6.84t-2.22,21Q5858.9,153.25,5861.12,160.44Z"/><path class="cls-2 letra_c9" d="M5908.52,162.8q3.3-7.86,15.61-16.65,10.7-7.65,13.83-11a16.2,16.2,0,0,0,4.83-11.28,12.46,12.46,0,0,0-2.77-8.3q-2.76-3.32-7.91-3.31-7.05,0-9.6,5.26c-1,2-1.56,5.24-1.74,9.65h-15q.38-10,3.64-16.21,6.18-11.76,22-11.77,12.49,0,19.87,6.92t7.38,18.3a24.79,24.79,0,0,1-5.21,15.51q-3.42,4.5-11.25,10l-6.19,4.39q-5.82,4.13-8,6a17.22,17.22,0,0,0-3.6,4.28h34.32v13.61h-53.85A37,37,0,0,1,5908.52,162.8Z"/><path class="cls-2 letra_d9" d="M5970.88,124V113.5a67.93,67.93,0,0,0,10.22-1,14.4,14.4,0,0,0,7.57-4.12,13.46,13.46,0,0,0,3-5.64,12.88,12.88,0,0,0,.6-3.15h12.91v78.63h-15.84V124Z"/><polygon class="cls-1 btn10" points="6860.74 0 6227.38 0 6347.38 131.95 6227.38 263.9 6860.74 263.9 6984.57 131.95 6860.74 0"/><path class="cls-2 letra_a10" d="M6531.93,143.65q-7,5.86-20,5.86h-16.64v28.74h-16.6V98.32H6513q11.86,0,18.93,6.18t7.05,19.14Q6539,137.8,6531.93,143.65Zm-12.74-28.79q-3.18-2.65-8.89-2.66h-15.05v23.54h15.05q5.71,0,8.89-2.88t3.17-9.11Q6522.36,117.53,6519.19,114.86Z"/><path class="cls-2 letra_b10" d="M6567,112.1h-15.67V97.83H6567Zm-15.67,7H6567v59.11h-15.67Z"/><path class="cls-2 letra_c10" d="M6597.74,178.25h-15.46V98.32h15.46Z"/><path class="cls-2 letra_d10" d="M6636.22,142.3a23.86,23.86,0,0,0,6.17-1.36q3.34-1.41,3.34-4.39c0-2.42-.86-4.09-2.56-5s-4.2-1.39-7.5-1.39c-3.7,0-6.32.91-7.86,2.71a11.15,11.15,0,0,0-2.2,5.43H6610.7a22.58,22.58,0,0,1,4.35-12.75q6.16-7.8,21.13-7.81a37.75,37.75,0,0,1,17.32,3.85q7.58,3.86,7.57,14.54v27.11q0,2.82.11,6.83a8.74,8.74,0,0,0,.92,4.13,5.52,5.52,0,0,0,2.28,1.78v2.28h-16.81a17.79,17.79,0,0,1-1-3.36c-.18-1-.32-2.24-.43-3.58a31.46,31.46,0,0,1-7.42,5.91,22.34,22.34,0,0,1-11.34,2.88q-8.07,0-13.34-4.59t-5.26-13q0-10.9,8.47-15.78,4.63-2.67,13.65-3.8Zm9.45,7.21a17,17,0,0,1-3,1.49,26.05,26.05,0,0,1-4.15,1.06l-3.52.65a23,23,0,0,0-7.11,2.12,7.06,7.06,0,0,0-3.65,6.56c0,2.64.75,4.54,2.23,5.72a8.53,8.53,0,0,0,5.43,1.76,16.19,16.19,0,0,0,9.33-2.93q4.28-2.92,4.43-10.68Z"/><path class="cls-2 letra_e10" d="M6707.41,117.76c.2,0,.64,0,1.33.08v15.84c-1-.11-1.84-.18-2.6-.22s-1.38-.05-1.85-.05q-9.33,0-12.52,6.07Q6690,142.9,6690,150v28.25h-15.57V119.14h14.75v10.31q3.59-5.91,6.24-8.08,4.34-3.63,11.28-3.64C6707,117.73,6707.21,117.74,6707.41,117.76Z"/><path class="cls-2 letra_f10" d="M6756.31,120.34a24,24,0,0,1,10.22,8.75,29.06,29.06,0,0,1,4.71,12.21,76.18,76.18,0,0,1,.5,11.74h-43.05q.36,8.9,6.19,12.47a15.71,15.71,0,0,0,8.52,2.22A13.06,13.06,0,0,0,6752,165a12.88,12.88,0,0,0,3.18-4.07h15.78q-.63,5.27-5.73,10.69-7.95,8.63-22.24,8.62a32.27,32.27,0,0,1-20.82-7.27q-9-7.28-9-23.67,0-15.36,8.14-23.55t21.14-8.2A33.72,33.72,0,0,1,6756.31,120.34Zm-23.12,13.35a16.14,16.14,0,0,0-4.12,9.15h26.63q-.42-6.15-4.12-9.34a13.56,13.56,0,0,0-9.16-3.19Q6736.47,130.31,6733.19,133.69Z"/><path class="cls-2 letra_g10" d="M6791.54,159.38q.49,4.13,2.13,5.86,2.88,3.09,10.68,3.09a16.25,16.25,0,0,0,7.27-1.36,4.54,4.54,0,0,0,.53-8q-2.17-1.37-16.17-4.67-10.08-2.49-14.2-6.23t-4.12-10.63a18.42,18.42,0,0,1,6.44-14.07q6.43-5.88,18.13-5.89,11.09,0,18.06,4.42t8,15.27h-15.45a9.13,9.13,0,0,0-1.69-4.72c-1.7-2.1-4.6-3.14-8.7-3.14q-5.05,0-7.21,1.57a4.53,4.53,0,0,0-2.14,3.69,4,4,0,0,0,2.28,3.84q2.28,1.26,16.14,4.29,9.22,2.17,13.84,6.56a14.9,14.9,0,0,1,4.56,11.12,18,18,0,0,1-6.55,14.34q-6.55,5.56-20.24,5.56-14,0-20.62-5.88a19.15,19.15,0,0,1-6.66-15Z"/></g></g></svg>